/* XPM */
static char *e802c207096a45bd8b183aa534101027ht8Uubt641xzgora[] = {
/* columns rows colors chars-per-pixel */
"85 64 239 2 ",
"   c #0E6D02",
".  c #6B691E",
"X  c #54064F",
"o  c #560751",
"O  c #5B0752",
"+  c #5C0854",
"@  c #5C095B",
"#  c #570854",
"$  c #610955",
"%  c #640A5B",
"&  c #6A0C5E",
"*  c #671559",
"=  c #5F0A62",
"-  c #560973",
";  c #5C0A74",
":  c #630B63",
">  c #6C0C64",
",  c #650C6B",
"<  c #6C0D6C",
"1  c #710E66",
"2  c #740E6C",
"3  c #780F6E",
"4  c #76126B",
"5  c #640B75",
"6  c #6B0C75",
"7  c #650D79",
"8  c #6C0E7A",
"9  c #730E76",
"0  c #790F76",
"q  c #720F79",
"w  c #7A0F79",
"e  c #6E107C",
"r  c #7B1175",
"t  c #74117D",
"y  c #7C117C",
"u  c #751075",
"i  c #78276A",
"p  c #6B5554",
"a  c #736D58",
"s  c #BC3E08",
"d  c #C73D19",
"f  c #D03F12",
"g  c #C93D25",
"h  c #B76A2D",
"j  c #A37220",
"k  c #CD4A1C",
"l  c #C9451A",
"z  c #D34A16",
"x  c #DA561A",
"c  c #DC5A1C",
"v  c #D65319",
"b  c #D25311",
"n  c #EC550D",
"m  c #F35A0B",
"M  c #E25C18",
"N  c #E34C0E",
"B  c #D8681D",
"V  c #D2711C",
"C  c #F9680C",
"Z  c #FE790D",
"A  c #E4631C",
"S  c #EB6A1D",
"D  c #E96716",
"F  c #F26D19",
"G  c #F7771A",
"H  c #E5781A",
"J  c #C74527",
"K  c #CE5135",
"L  c #E15F22",
"P  c #DC6626",
"I  c #D36D2F",
"U  c #E86922",
"Y  c #E77A23",
"T  c #F27423",
"R  c #F77C26",
"E  c #F17333",
"W  c #8D2B55",
"Q  c #AA3A54",
"!  c #801276",
"~  c #82127C",
"^  c #871C79",
"/  c #8F3370",
"(  c #AC366F",
")  c #B34654",
"_  c #975971",
"`  c #CA4B47",
"'  c #D0534F",
"]  c #ED714B",
"[  c #D55A77",
"{  c #D0556A",
"}  c #E46774",
"|  c #1B8202",
" . c #248703",
".. c #379902",
"X. c #2F8A0C",
"o. c #4AA904",
"O. c #54AF02",
"+. c #5AB704",
"@. c #4BAD07",
"#. c #62BC04",
"$. c #509830",
"%. c #70B630",
"&. c #5D910F",
"*. c #69C704",
"=. c #77CB05",
"-. c #7AD806",
";. c #7CDA1D",
":. c #7FE301",
">. c #6B904E",
",. c #7C9174",
"<. c #7BA173",
"1. c #448640",
"2. c #FF870D",
"3. c #FE8D14",
"4. c #FC8719",
"5. c #FE9513",
"6. c #FF9B12",
"7. c #FF9C1A",
"8. c #FE941A",
"9. c #F58A15",
"0. c #FFA315",
"q. c #FEA41B",
"w. c #FEAB1C",
"e. c #FEA917",
"r. c #FFB31E",
"t. c #EA8622",
"y. c #FC8324",
"u. c #FE8B2B",
"i. c #F98628",
"p. c #FE9323",
"a. c #FE932D",
"s. c #FE9B2B",
"d. c #F99927",
"f. c #FE9B31",
"g. c #FF9330",
"h. c #E9982E",
"j. c #FEAC22",
"k. c #FEAC2B",
"l. c #FCA528",
"z. c #FEB423",
"x. c #FEB925",
"c. c #FEB42C",
"v. c #FEBB2B",
"b. c #FEA532",
"n. c #FDAC33",
"m. c #F5A433",
"M. c #FEB434",
"N. c #FEBB32",
"B. c #FABB35",
"V. c #DB882B",
"C. c #87DA05",
"Z. c #89E505",
"A. c #98E704",
"S. c #94E911",
"D. c #A4EE02",
"F. c #A4EC08",
"G. c #A5F000",
"H. c #88CE34",
"J. c #FDC434",
"K. c #FEC531",
"L. c #94A767",
"P. c #8A8A68",
"I. c #FCCB47",
"U. c #FED546",
"Y. c #FCD555",
"T. c #F5C957",
"R. c #F7D662",
"E. c #FCEB7A",
"W. c #FDE368",
"Q. c #C3952D",
"!. c #751382",
"~. c #7C1482",
"^. c #7E1989",
"/. c #7B1988",
"(. c #7F1887",
"). c #831584",
"_. c #891786",
"`. c #8A1886",
"'. c #841B8C",
"]. c #8B1A8B",
"[. c #851887",
"{. c #921C8D",
"}. c #991F87",
"|. c #8C1E91",
" X c #871F90",
".X c #951E91",
"XX c #991F93",
"oX c #8D2194",
"OX c #872091",
"+X c #932295",
"@X c #9B2195",
"#X c #94259A",
"$X c #9C259A",
"%X c #9A299E",
"&X c #972998",
"*X c #913688",
"=X c #A2269C",
"-X c #A3299C",
";X c #B53A8A",
":X c #9D2BA2",
">X c #A42BA3",
",X c #AA2CA5",
"<X c #A92FA8",
"1X c #AC32AC",
"2X c #A834AB",
"3X c #B233AD",
"4X c #B83CAE",
"5X c #AE35B1",
"6X c #B436B2",
"7X c #BA39B6",
"8X c #BC3CBB",
"9X c #B63AB5",
"0X c #C13EBD",
"qX c #924888",
"wX c #A74E90",
"eX c #BC45BA",
"rX c #B350AC",
"tX c #9E7293",
"yX c #D55A8A",
"uX c #CF5094",
"iX c #DC649C",
"pX c #DC628D",
"aX c #C343B9",
"sX c #C955A9",
"dX c #DD66A7",
"fX c #D666B6",
"gX c #E26BA8",
"hX c #E36CB8",
"jX c #E571BE",
"kX c #E16797",
"lX c #BF3FC0",
"zX c #C23FC1",
"xX c #CE67C7",
"cX c #E773CA",
"vX c #E772CE",
"bX c #C65AC4",
"nX c #FBF186",
"mX c #DF88DD",
"MX c #A88FB9",
/* pixels */
"- - - - - ; ; ; ; 5 5 5 7 7 7 7 7 7 7 8 8 8 e e !.t !.!.!.!.!.!.!.!.!.!.!.~.^.^.^.^.^.^.^.^.'.'.'.^.^.^.^./.!.!.!.!.!.!.!.t e 8 8 7 7 7 7 7 7 5 5 5 ; ; ; ; - - - - - - - ",
"- - - - ; ; ; ; 5 5 7 7 7 7 7 7 8 8 8 8 e t t !.!.!.!.!.!.!.!.!./.^.^.^.^.'.'.'.'.'.'.'. X XOXOXOX'. X'.'.'.'.^.^./.!.!.!.!.!.t t 8 8 7 7 7 7 7 5 5 5 5 ; ; ; - - - - - - ",
"- - ; ; ; ; ; 5 5 7 7 7 7 7 8 8 8 8 q t !.!.!.!.!.!.!.!.!.!.(.^.^.'.'.'.'. X X|.oXoXoXoXoXoXoXoXoXoXoXoXoX'.'.'.'.^./.!.!.!.!.!.t t e 8 8 8 7 7 7 7 7 5 5 ; ; ; ; - - - - ",
"- - ; ; ; 5 5 5 7 7 7 7 8 8 8 8 q t t !.!.!.!.!.!.!.!.~.~.[.'.[.'.].].|.oXoXoX+X+X+X#X#X#X#X#X#X#X#X#X#XoXoX|. X'.'.'.^.~.!.!.!.!.t t 8 8 8 7 7 7 7 5 5 5 5 ; ; ; - - - - ",
"; ; ; ; 5 5 5 7 7 7 7 7 8 e q t t t t t t !.~.~.~.~.[.[.'.'.'.].].|.|.oXoX#X#X#X#X%X%X%X%X%X%X:X%X%X#X#X#X#X+XoX|.|.'.'.^.~.~.!.t t t t 8 8 7 7 7 7 5 5 5 5 5 ; ; ; - - - ",
"; ; ; 5 5 5 7 7 7 7 7 8 8 q q t t t !.!.!.!.!.~.).).'.'.'. X|.|.oX+X+X#X#X%X%X:X:X:X:X:X:X>X>X:X:X:X:X:X:X#X#X+XoXoX|.'.[./.~.~.!.t t t q q 8 8 7 7 5 5 5 5 5 5 ; ; ; - - ",
"; ; 5 5 5 7 7 8 7 7 8 8 t t t t t !.!.~.~.~.~.).[.[.`.].|.|.oX+X@X#X$X%X%X:X:X>X>X<X<X<X<X2XxX2X<X<X<X>X:X:X%X#X#X+X|.|.'.'.).~.!.!.t t t q 8 8 7 7 6 6 5 5 5 5 5 ; ; ; - ",
"; ; 5 7 7 7 7 7 7 8 e t t t t !.!.!.~.~.~.).).[.[.].].|.|.+X@X#X$X%X:X>X>X>X<X<X1X1X1X1X5X5XeX1X1X1X1X<X,X>X:X%X$X#X+XoX].[.[.~.~.~.!.t t t q 8 8 8 7 6 5 5 5 5 5 5 ; ; - ",
"; 5 7 7 7 7 8 7 e q t t t t !.!.!.~.~.~.).[.[.[.].].|..X+X#X$X%X%X>X,X,X2X1X1X1X5X5X5X6X9X5XrXrX5X5X1X1X2X<X>X>X%X$X#XoX].].[.[.~.~.!.y t t t q 8 8 8 7 7 5 5 5 5 5 ; ; - ",
"5 5 7 7 7 7 7 8 8 t t t t y !.~.~.).).).[.[.].].].|..X@X$X$X%X>X>X,X<X1X1X5X9X9X9X6X9X9XtX%.;.H.H.L.tX2XtXL.L.tX&X%X#X+X.X].'.[.).~.~.y y t t q q q 8 8 7 6 5 5 5 5 ; ; - ",
"5 7 7 7 7 7 e e t t t !.!.!.~.~.).).).[.[.].].|..X+X@X$X%X=X>X,X<X1X1X6X6X8XmXxX8X8X8XrX%.-.:.Z.Z.Z.;.H.S.A.A.Z.H.P.*X+X+X|.].[.).).~.~.y y t t t q 8 8 7 7 6 5 5 5 5 ; - ",
"5 7 7 7 8 8 8 q t t t y !.~.~.~.).).[.`.].]..X.X@X$X$X%X>X>X,X<X1X5X6X9X9X8XxXbX8X8XeX>.*.-.-.Z.A.Z.Z.A.G.G.D.A.Z.C.%._ +X|.].[.).).).~.~.y t q t t 8 8 6 6 6 6 5 5 5 ; ; ",
"7 7 7 7 8 8 q q t t y !.~.~.).).).).`.].].]..X@X$X$X=X>X>X,X1X1X3X6X9X7X8X8X8XlX8XeXwX@.*.*.*.C.-.-.A.D.G.G.D.D.A.Z.C.*.>.*X].`.).).).~.~.y t t t t q 8 8 6 6 6 5 5 5 ; ; ",
"7 7 7 7 8 q q t t y !.~.~.).).).).`.`.].{..X@X@X$X=X>X,X<X1X3X6X9X9X7X8X8X0XaXuXyXyX_ &.o.o.O.+.+.C.A.D.G.D.D.A.A.A.A.C.*.%./ '.`.).).).y y r r t 9 t q 8 8 6 6 5 5 5 5 5 ",
"7 7 8 8 8 q t t t y !.~.).).).).[.`.].]..X@X@X$X=X>X,X,X1X3X6X9X7X8X8X8XaX[ E G 4.4.4.t.V j &...#.=.C.A.A.A.C.C.D.F.F.A.C.+.$./ `._.).).y y y t t 9 t q 8 6 6 6 5 5 5 5 ; ",
"7 7 7 8 8 t t t y ~.~.~.).).)._.`.].].{.+X@X$X-X>X,X<XeXeX6X7X7X8X8XeXuX] G 4.8.q.q.w.j.j.9.H V &.#.=.C.C.=.=.F.F.F.A.A.C.+.O.>.`.).).).y y y r t t t q 8 8 6 6 5 5 5 5 5 ",
"7 7 8 8 q t t !.!.~.~.~.).).).`.].]..X.X@X@X=X>X,X,X1XeXaX7X8X8X0XaXyXR 3.7.q.w.w.w.r.x.v.v.l.G P j +.*.+.O.A.F.F.F.A.C.=.+.O.$.[._.).).~ y y y t 9 q q q 8 6 6 5 5 5 5 5 ",
"7 7 8 q q t t !.~.~.~.).).).`.`.].{..X@X@X$X=X>X,X1X3X6X7X7X8X0XaXyXy.3.7.q.r.r.r.z.z.K.J.J.N.k.t.U h &. .*.A.A.A.A.C.=.+.O.o.,.).`.).~ ).y y w y w t q q q 8 6 5 5 5 5 5 ",
"7 8 8 q t t !.!.~.~.).).)._.`.].{..X.X@X$X=X>X,X<X1X6X6X8X8X0XaXuXR 3.7.w.r.r.r.r.x.K.U.U.J.z.j.7.G U h . +.=.-.=.*.#.+.O.o.<.tX_.).).).).y y r y w 9 q 9 8 8 6 5 5 5 5 5 ",
"7 8 8 q t t !.!.~.~.).).)._.].].{..X@X@X=X=X>X,X1X3X9X7X8X0XzXsXE 3.7.w.r.z.x.x.x.K.U.U.J.z.j.j.7.8.G U I ..o.O.o.o.o.o.@.<.MX X~ ~ ).).).~ y y y w w 9 q 8 8 6 6 5 5 5 5 ",
"7 8 e t t t y ~.~.~.).).).`.].{.{.@X@X$X=X>X,X<X3X6X7X8X8X0XaX] 3.7.w.r.z.z.x.x.v.U.U.J.x.x.z.j.7.8.4.S P h X.........$.<.,.p ! ~ ~ ).).).~ y y r w w 9 q 8 8 6 6 5 5 5 5 ",
"7 8 q t t t !.~.~.).).).).`.].{.+X@X@X=X=X>X,X3X6X7X7X8X0XaX} 4.7.w.r.z.x.x.x.v.U.U.J.v.v.c.z.j.l.p.4.G A P j  . .X.$.>.$.+.%.4 ! ~ ).).).~ y y r r w 9 q e 6 8 6 6 5 5 5 ",
"7 8 q t t y !.~.).).).).`.`.{.{..X@X@X=X-X,X4XbX7X7X8X0X0XuXy.8.q.w.z.z.x.x.v.I.Y.J.v.v.c.c.k.l.d.p.4.G S L I . | X.X.| o.=.=.p y ! ~ ~ ~ ~ y y r r 9 9 q q 8 6 6 6 5 5 5 ",
"7 8 t t t y !.).).).).).`.].{.{..X@X=X=X>X,XeXmXaX7X8X0XaX] 8.q.w.z.x.x.v.v.I.W.I.v.N.v.c.c.k.l.s.p.y.G S M P h     |  .#.=.=.a r ! ~ ~ ~ ~ y y y w t 9 q q 8 8 6 6 5 5 5 ",
"7 e t t t !.!.~.~.).)._.`.].{..XXX@X=X=X,X,X3XeX7X8X0X0X} 3.7.w.z.z.x.v.v.I.E.I.N.N.N.c.c.M.k.l.s.p.y.T S A c I .   | ..#.*.*.>.r ! ~ ~ ~ ~ y y y w w 9 9 q 8 8 6 6 5 5 5 ",
"7 e t t t !.!.~.).).)._.`.].{..XXX@X=X=X,X,X3X6X7X8X0XuXy.5.q.w.z.x.c.v.I.E.R.N.N.N.M.M.m.n.b.l.s.u.y.T S A x P h   | ..O.+.+.a ! ~ ~ ~ ~ ~ y y y r w 9 9 q 8 6 6 6 5 5 5 ",
"8 q t t y !.~.).).).).`.].].{..XXX@X=X=X,X,X3X3X7X8X7X] 3.7.w.z.z.x.B.Y.E.E.B.N.N.M.M.M.h.V h.s.a.u.R T S c x v K . | X.o.O.o.p r ! ~ ~ ~ ~ y y y r r 0 9 q 6 6 6 6 6 5 5 ",
"8 q t t y !.~.).).).).`.].].{..XXX@X=X1X,X,X3X3X7X7XuX4.5.q.w.z.x.B.m.T.nXR.N.M.N.M.M.n.n.Y B t.a.u.R T U c v k K h X.$.$.>.,.4 r ! ~ ~ ~ ~ y y y r w w 9 q 6 6 6 6 5 5 5 ",
"8 8 t t !.!.~.).).).).`.].].{..XXX@X=X>X,X,X3X3X7X4X] 3.7.w.j.z.c.Y.h.t.V V.n.N.M.M.n.n.b.h.Y B Y i.R G S c k l K K p p a qX4 4 r ~ `.~ ~ ~ y y y r r 9 9 q 6 6 6 6 5 5 5 ",
"8 q t t t !.~.~.).).).`.].].{..XXX@X=X=X,X,X3X3X6XuXG 4.7.w.z.z.v.W.E.h.t.t.V m.M.n.n.b.b.f.Y B b R T U A c k l J K W % % & 1 4 r ! ~ ~ ~ ~ y y y r w 9 9 9 6 6 6 6 6 5 5 ",
"8 q t t t !.~.~.).).).`.].].{..X@X@X=X=X,X,X3X3X3X] 3.7.7.q.j.x.Y.nXnXT.t.t.Y V b.n.b.b.f.f.a.P v B T U M x k l J K Q % & > 1 4 r r ~ ~ ~ ~ y y y r w 9 9 9 6 6 6 6 6 5 5 ",
"8 q t t t !.~.~.).).).`.].].{..XXX@X@X=X,X,X<X1XuX4.5.0.w.j.j.B.nXW.J.N.m.t.Y H Y b.b.f.f.g.u.i.B b U U c v k l K K ) % & > 1 3 r ! ~ ~ ~ ! y y y r w 9 9 9 6 6 6 6 6 5 5 ",
"8 q t t !.!.~.~.).).).`.].].{.{.XX@X@X=X>X,X,X,X] 3.6.q.w.w.x.W.R.N.c.c.M.m.Y Y B d.f.f.g.u.u.i.R v U B x k l d K ' ) % & 1 4 wX^ ! ~ ~ ~ ~ y w r 0 w 9 9 9 6 6 6 6 6 5 5 ",
"7 q t t y !.~.~.).).)._.].].{.{..X@X@X=X=X,X,X;XR 5.0.0.w.w.I.Y.v.c.c.k.k.k.m.Y B Y f.g.u.u.i.R T T U c v k l J ` ' Q & 1 1 4 ^ ~ ! ~ ~ ~ y y y r 0 w 9 9 9 6 6 6 6 6 5 5 ",
"8 q t t t !.~.~.).).)._.`.].].{..XXX@X@X=X=X-X{ 2.6.0.0.w.v.I.v.j.k.k.k.b.b.l.s.Y P a.u.u.i.R T U U c v k l d J ' ' W 1 2 4 r r ! ! ~ ~ ~ y y y 0 0 9 9 9 9 6 6 6 6 6 5 5 ",
"8 8 t t t !.!.~.).).)._.`.].].{.{.XXXX@X=X=X-XE 3.6.0.0.w.J.v.j.j.j.j.l.l.s.s.s.a.i.u.i.i.R T U U c x k l l J ' { { 4 1 3 r r ! ! ! ! ~ ~ y y w 0 u 9 9 9 6 6 6 6 6 5 5 5 ",
"8 8 q t t y !.~.~.).).).`._.].{.{..XXX@X@X@X( 4.5.6.0.0.r.x.w.q.q.j.l.s.s.s.a.a.u.u.i.R R T U U L x z l J ` { [ [ ( 1 3 r r ! ! ~ ~ ! ! y y y 0 0 u 9 9 9 6 6 6 6 6 5 5 5 ",
"7 8 8 t t t !.~.~.).).).`.`.].].{.{.@XrX@X@X' 2.5.6.0.e.w.w.q.q.q.d.d.p.p.p.u.u.u.y.R T T U S A c v k l ` ` [ yXyX^ 1 3 ! ! ! ! ~ ~ ! ! y y y r u 0 9 9 9 9 6 6 6 6 5 5 5 ",
"8 8 e q t t !.~.~.).).)._.`.`.].{.{.+XrX@X}.E 3.5.6.0.w.q.0.7.7.7.p.p.p.u.y.y.R R R T U U A M c k k l ` ` ` yXiX( > 2 r ! ! ~ ! ~ ~ ! ! y y r 0 u 0 9 9 9 6 6 6 6 6 5 5 5 ",
"7 8 q q t t y y ~.~.).).)._._.`.].{.{.{.{.( G 3.5.6.0.0.6.7.7.8.8.8.4.4.y.R R T T T U A A c x v k l ` yX[ yXdXwX& > 2 r ! ! ~ ~ ~ ! ! y y y 0 0 0 9 9 9 9 6 6 6 6 5 5 5 5 ",
"7 8 q q t t y !.~.~.).).).)._.`.].].{.{.].) Z 3.5.6.0.6.5.5.3.3.4.4.4.G G T T F S S A M x x z k ` [ pXiXdXdXwX$ & > 2 r ! ! ! ~ ! ! ! y y w 0 0 0 9 9 9 9 6 6 6 6 5 5 5 5 ",
"7 7 q t q t y y ~.~.).).).).)._._.].].`.`.' 2.2.3.6.5.H D 4.2.4.G G G G F S S S A A M c z k l ' pXiXdXgXhXqX$ % & > 3 r ! ! ! ~ ! ! y y w w 0 0 9 9 9 9 6 6 6 6 6 5 5 5 5 ",
"7 7 8 8 q t t y y ~.).).).).)._._._.].`.^ U Z 2.3.5.3.9.M b F Z G F F S S A A A M x v z k ` [ iXdXhXhXfX/ $ $ % > 1 3 r ! ! ! ! ! y y w 0 0 r 0 9 9 9 9 6 6 6 6 5 5 5 5 5 ",
"7 7 8 8 q t t t y y y y ).).).)._._.&X~ ^ T Z 2.3.2.Z Z D b b F F D D A M M x x v z k J ' kXgXgXhXhXwX* O $ % & > 1 r r ! ! ! ! ! y y w w w 0 0 9 9 9 6 6 6 6 6 5 5 5 5 5 ",
"7 7 7 8 q t t t !.~.~.y ~ ).).)._._._.~ / G Z Z 2.Z Z C F b z b M M M M x x z z k l J [ gXhXhXcXsXi + + $ $ % > 1 3 r r ! ! ! y y y 0 w 0 0 0 9 9 9 9 6 6 6 6 6 5 5 5 5 5 ",
"7 7 7 8 8 q t t t !.!.y y ~ ).).)._.).~ Q C C Z Z C C C m D b s x x v z z z k J ` [ gXjXcXcXfX/ + + + + $ % > > 2 3 r ! ! ! ! y y w 0 0 0 0 9 9 9 9 6 6 6 6 6 6 5 5 5 5 ; ",
"7 7 7 7 8 q q t t y y y y y ).).).).~ ! Q C C C C m m n n N M v z z z l l l J [ gXjXcXcXfXqX+ O O + $ $ % > > 1 3 r y y y y y y w 0 0 0 9 9 9 9 9 9 6 6 6 6 6 5 5 5 5 ; ; ",
"7 7 7 7 8 q q t t t y y y y ).).).~ ~ r Q m m m n N N N N z z z z l d g ' [ gXcXcXvXfX*X+ O O + + + $ % & > 1 3 r r y y y y y w 0 0 0 0 9 9 9 9 9 6 6 6 6 6 6 5 5 5 5 ; ; ",
"5 7 7 7 8 8 q q t t y y y y y y ~ y y u Q m n N N N z z z z d d d d ` pXhXvXvXvXrX/ O O O O + $ $ % % > > 1 3 0 r y y y y w w 0 w 0 0 0 9 9 9 9 6 6 6 6 6 6 6 5 5 5 5 ; 5 ",
"5 7 7 7 7 8 q q t t t t y y y y y y y r W N N N z z f d d g J ` { iXcXvXvXxXwX* O O O O + + + $ % > > 1 2 9 r 0 y w w y w w 0 u u u 9 9 9 9 9 9 6 6 6 6 6 6 5 5 5 5 5 ; ; ",
"5 5 7 7 7 8 8 8 q t t t t y y y y r u u 1 g z f f d g g ' [ iXhXvXvXxXrXi O O O O + + + + @ $ % : > < 3 9 r u y r r y r 0 u 0 0 9 9 9 9 9 9 9 6 9 6 6 6 6 6 5 5 5 5 5 ; ; ",
"5 5 7 7 7 7 8 8 8 q q t t t y y y r u 9 < W K K ` { [ dXjXvXxXrXqXi O O O O O O O + + @ $ % : > > 2 2 0 u r y y y y r 0 0 0 0 9 9 9 9 9 9 9 6 6 6 6 6 6 6 5 5 5 5 5 5 ; ; ",
"5 5 5 5 5 7 7 8 8 8 q q t t t y r t u < < % * W ( ( wXqXi + o o o o o o O O O + + @ % % & > > < 2 9 9 u u u r y r r r 9 9 9 9 9 9 9 9 9 6 6 6 6 6 6 6 6 5 5 5 5 5 ; ; ; ; ",
"; 5 5 5 7 7 5 7 8 8 8 q q t t 9 t 9 9 < > % @ o o X X X X X o o o o o # + + + @ @ % : > > < 2 9 9 u 0 0 u u r w w r 9 9 9 9 9 9 9 9 9 6 6 6 6 6 6 6 6 5 5 5 5 5 5 ; ; - ; ",
"; ; 5 5 7 7 7 7 7 7 8 8 8 q t q t 9 9 < , : @ # X X o o o o o o o + # + + @ @ % : : > < < < 9 9 9 9 9 9 9 9 9 9 9 9 9 9 9 9 9 9 9 9 6 6 6 6 6 6 6 6 5 5 5 5 5 5 ; ; ; - ; ",
"; ; 5 5 5 7 7 5 7 7 8 8 8 q q t t q 6 < , : @ + o o o o o o o # + @ @ @ @ : : : , < < 9 6 9 9 9 9 9 9 9 9 9 9 9 9 9 9 9 9 6 6 9 6 6 6 6 6 6 6 6 6 5 5 5 5 5 5 ; ; ; ; - - ",
"; ; ; 5 5 5 5 5 5 7 7 8 8 8 8 q 8 6 6 6 , : @ @ # # # # # + @ @ @ @ @ : : , < < < 6 6 9 9 9 9 9 9 q 9 q q q q q q q 9 6 6 6 6 6 6 6 6 6 6 6 6 5 5 5 5 5 5 5 ; ; ; ; - - - ",
"- ; ; ; 5 5 5 5 5 5 6 7 8 8 8 8 8 8 6 6 < , = @ @ @ @ @ @ @ @ : : : : , < < < 6 6 9 9 9 9 9 9 9 q q q q 8 q 9 9 6 6 6 6 6 6 6 6 6 6 6 6 6 6 5 5 5 5 5 5 5 ; ; ; ; ; - - - ",
"; ; - ; ; ; 5 5 5 5 5 6 7 7 7 8 7 6 6 6 6 , , : = = = = = : : , , , < < 6 6 6 6 6 q q q 9 9 9 9 9 q 6 6 6 6 6 6 6 6 6 6 6 6 6 6 6 6 6 6 5 5 5 5 5 5 5 5 5 ; ; ; ; ; ; - - ",
"- - - ; ; ; ; 5 5 5 5 5 6 5 5 7 7 7 7 6 6 , , , , , , , , , , , , < 6 6 6 6 6 8 8 8 8 q 8 8 6 8 8 6 6 6 6 6 6 6 6 6 6 6 6 6 6 6 5 5 5 5 5 5 5 5 5 5 5 5 ; ; ; ; ; - - - - ",
"- - - - ; ; ; 5 5 5 5 5 5 5 5 6 6 7 6 6 6 6 6 5 , , , , , 5 6 6 6 6 6 6 6 6 6 8 8 8 8 8 8 8 6 6 6 6 6 6 6 6 6 6 6 6 6 5 5 5 5 5 5 5 5 5 5 5 5 5 5 5 ; ; ; ; - ; - - - - - ",
"- - - - ; - ; ; ; ; ; 5 5 5 5 5 5 5 5 5 5 5 5 5 5 5 5 5 5 5 6 6 6 6 6 6 7 7 7 6 7 7 6 6 6 6 6 6 6 5 6 6 5 6 5 5 5 5 5 5 5 5 5 5 5 5 5 5 5 5 5 ; ; ; ; ; ; ; - - - - - - - ",
"- - - - - - - ; ; ; ; 5 5 5 5 5 5 5 5 5 5 5 5 5 6 5 5 5 5 5 5 6 6 6 6 6 6 7 6 6 6 6 5 5 5 5 5 6 6 5 5 5 5 5 5 5 5 5 5 5 5 5 5 5 5 5 5 5 5 ; ; ; ; ; ; ; ; ; - - - - - - - ",
"- - - - - - - - ; ; ; ; ; 5 5 5 5 5 5 5 5 5 5 5 5 5 5 5 5 5 5 5 5 5 5 5 5 5 5 5 5 5 5 5 5 5 5 5 5 5 5 5 5 5 5 5 5 5 5 5 5 5 5 5 ; ; ; ; ; ; ; ; - - - - ; - - - - - - - - "
};
