/* XPM */
static char *fefacb0c13f34d9fa84fe234ce361536[] = {
/* columns rows colors chars-per-pixel */
"64 67 230 2 ",
"   c #24263B",
".  c #2B2B3D",
"X  c #242738",
"o  c #30343F",
"O  c #1D294C",
"+  c #212643",
"@  c #262B45",
"#  c #2B2D44",
"$  c #252C4A",
"%  c #2B2E4B",
"&  c #282745",
"*  c #312F45",
"=  c #312E4A",
"-  c #2B3146",
";  c #26324C",
":  c #2C324D",
">  c #2D394E",
",  c #253347",
"<  c #323246",
"1  c #313945",
"2  c #32344D",
"3  c #39364C",
"4  c #33394D",
"5  c #3A3A4D",
"6  c #252E53",
"7  c #2D2F53",
"8  c #342E55",
"9  c #263354",
"0  c #2D3453",
"q  c #273855",
"w  c #2E3954",
"e  c #25345A",
"r  c #2C355A",
"t  c #2E3A5B",
"y  c #323553",
"u  c #333A55",
"i  c #3A3C54",
"p  c #32365A",
"a  c #343B5B",
"s  c #393D5B",
"d  c #3A3754",
"f  c #2D3B63",
"g  c #2C3C69",
"h  c #2A3762",
"j  c #313762",
"k  c #343D63",
"l  c #3A3E62",
"z  c #333C6B",
"x  c #3A3F6A",
"c  c #413D56",
"v  c #2E405C",
"b  c #2E4056",
"n  c #344457",
"m  c #3A4155",
"M  c #36415D",
"N  c #3B425D",
"B  c #3C485E",
"V  c #2E4162",
"C  c #354263",
"Z  c #3B4464",
"A  c #3D4965",
"S  c #35446B",
"D  c #3C456A",
"F  c #36496D",
"G  c #3D4A6C",
"H  c #364A65",
"J  c #2F4273",
"K  c #344473",
"L  c #3B4572",
"P  c #354A72",
"I  c #3D4B73",
"U  c #354A7A",
"Y  c #3D4C7B",
"T  c #354679",
"R  c #3E5174",
"E  c #3E517E",
"W  c #3E526B",
"Q  c #40485F",
"!  c #42445C",
"~  c #414664",
"^  c #424A66",
"/  c #404569",
"(  c #424C6C",
")  c #484C68",
"_  c #44516E",
"`  c #4A526D",
"'  c #434D73",
"]  c #434C7B",
"[  c #464B74",
"{  c #445273",
"}  c #4A5373",
"|  c #44537C",
" . c #4A557C",
".. c #4C5A7D",
"X. c #495B79",
"o. c #535D7C",
"O. c #525878",
"+. c #575763",
"@. c #55617B",
"#. c #2E4C80",
"$. c #3C5489",
"%. c #3C4C80",
"&. c #445583",
"*. c #4A5685",
"=. c #455984",
"-. c #4C5B84",
";. c #435589",
":. c #455A8C",
">. c #4C5D8B",
",. c #515483",
"<. c #535E84",
"1. c #525E8C",
"2. c #5A5F83",
"3. c #4C5F91",
"4. c #475D98",
"5. c #4E618B",
"6. c #556285",
"7. c #5A6585",
"8. c #54638C",
"9. c #59658C",
"0. c #5D6A8C",
"q. c #4D6394",
"w. c #4D6994",
"e. c #546594",
"r. c #5A6693",
"t. c #556995",
"y. c #5B6B94",
"u. c #54659B",
"i. c #556B9C",
"p. c #5A6B9B",
"a. c #586498",
"s. c #5D719C",
"d. c #55709D",
"f. c #626D8E",
"g. c #626A81",
"h. c #616E93",
"j. c #616E9D",
"k. c #6A6F95",
"l. c #657294",
"z. c #63729C",
"x. c #6A759B",
"c. c #6D799D",
"v. c #68779A",
"b. c #707894",
"n. c #5566A1",
"m. c #566BA2",
"M. c #5B6DA2",
"N. c #536BAB",
"B. c #5B6EAC",
"V. c #5D73A4",
"C. c #5B73AB",
"Z. c #5E7AAC",
"A. c #5473A8",
"S. c #5573B3",
"D. c #5B74B4",
"F. c #5C79B6",
"G. c #5C75BA",
"H. c #5D7ABD",
"J. c #567EBC",
"K. c #606DA1",
"L. c #6474A4",
"P. c #6C77A4",
"I. c #6679A5",
"U. c #6B7AA3",
"Y. c #6275AB",
"T. c #6A75AA",
"R. c #647AAC",
"E. c #6B7CAB",
"W. c #727CA3",
"Q. c #717EAD",
"!. c #6375B2",
"~. c #647BB3",
"^. c #6A7DB3",
"/. c #6176BB",
"(. c #637CBB",
"). c #6B7EBB",
"_. c #717CB4",
"`. c #5E7CC2",
"'. c #5A77C5",
"]. c #637CC2",
"[. c #657DCA",
"{. c #6177C2",
"}. c #657ED0",
"|. c #6F84AD",
" X c #6E80A4",
".X c #7984A7",
"XX c #7482AB",
"oX c #7887AA",
"OX c #6581B6",
"+X c #6C83B5",
"@X c #6582BB",
"#X c #6B83BC",
"$X c #6E89BD",
"%X c #6E89B6",
"&X c #7284B4",
"*X c #7983B2",
"=X c #7489B6",
"-X c #7C8BB3",
";X c #7385BC",
":X c #748ABC",
">X c #7A8DBB",
",X c #7885BA",
"<X c #7D91BC",
"1X c #5F82C8",
"2X c #6482C4",
"3X c #6B84C4",
"4X c #6D89C4",
"5X c #6485C9",
"6X c #6B84CB",
"7X c #6D8ACA",
"8X c #7285C2",
"9X c #738AC3",
"0X c #7A8EC4",
"qX c #738DCB",
"wX c #798ECC",
"eX c #7A92C4",
"rX c #7593CA",
"tX c #7B93CC",
"yX c #7896C8",
"uX c #748DD0",
"iX c #7994D4",
"pX c #818CBA",
"aX c #8495BD",
"sX c #8893B9",
"dX c #828BAC",
"fX c #8494C1",
"gX c #8195CB",
"hX c #8299CC",
"jX c #8A97C1",
"kX c #829CD7",
/* pixels */
"a k S M : p y ) g.- w M Z a ; s F R.tX6XiX#XL.C y % m 4 u Z Z D A a y 9 I R.C.)./.=.w 4 4 : y : - i s s u 4 s 0 ; : 2 # : 0 % : ",
"{ L.*.a i 7 0 - 0 0 $ 7.7.9 u u C >.0XuX(.#X&.k 7 0 y Z 6 a Z a ; w a e S +X(.(.D.;.q - u y 0 y w : % y u - : % # u 3 X 2 s s B ",
"i.9Xy.0 u y % ; ; Z 0 ( G ; : u A l.E.;X;X>X*.l y a D W.8.h 0 N 0 Z p 8.p.@X2X].@X+X6.a w p ; : y y = 2 2 u u y 3   < u } ( ( ^ ",
"~.~.>.w 4 2 7 ; w Z G a a ^ u s i 7.9.g &.*Xf.Z u M I ^.8X!.T.1.9 Z l -.s.!.(.(.%X<X X( y a : - 2 = 2 i i a : y & : : l Q.P.{ Z ",
"~.;XY 4 < = i - u a G ( { ( N u u a w p t p } 0 ' 8.^.3XH.(.L.f 0 ; a 0 S :.~.9XI S Z y % y 2 2 i 5 4 - a } a y y 0 C t.tX0Xp.-.",
"e j.*.a y s 0 - a w G { { C a u u u Z Z 0 N u a T.).2X2X].~...w a % : w 0 S >XI.C 0 y y 2 y y 0 2 - - t | z.D 0 0 f.|.~.qXkX0X>X",
"a h.L.S e z 6 w : y ( G { { a Z 0.c.Z s u - @ u z e.~.H.(.Y...0 ; a y u w C c.S ; y y y 2 a ' <.I e S t.R.M.9 : ; { =X7XG.(.+Xp.",
"u -.L.I.I.M.r.X.2 Z a H { G t Z | U.C y : 2 B u u 0 s.OXD.!.&Xr w % i y u 0 w r u s 0 u a t =.&X,X&X&XY.N.m.e 4 u v R.7X5X3XV.e ",
"2 u r T ~.@X+XQ.u s Z D { { D ( { D a 4 - 9 j M C Z h.6.y Z } w # a 0 0 o.o.0 w u l Z : 3 N f :X;X@XF.S.S.q.w < 0 h.E.R.V.I.L.f ",
"2 y C 5.^.R.>.k u u Z D { v.f.D A D y - 2 p p : a 0 C p % ; 0 w $ u ; 0 o.} u ; s a t s u - f Z.#X(.H.2XH.m.S % $ D D e e <.x.p ",
"u u ..U.| f 0 s s u ( G ( 9.7.M m s 0 2 3 7 0 i Z p p a 0 0 u 2 a 0 u 9 y : - 2 u 0 y 0 0 a P #XH.].`.5X2X#Xt.f y u % % 0 ; : ; ",
"y t 6.U.e w 2 3 u Z ( G D C w s u a p 0 0  .6.: w ; 0 a a Z N i w ; a 0 0 s : u N a u u w  .+X#XS.2XuXqX9X#X=XL.u % 2 3 < 2 y y ",
"/ h &.I.r a 2 2 w ( ( a C a % u A z.1.| z.&Xr.a a s 0 p <.{ t u a M 0 a Z ^ 0 y : @ s ; } -X,X9X9XiXtXtX&Xj.r.r.N y 2 # # 2 y % ",
"oX-.;.R.I s y a C l Z a a a y y D >.M.@X#X~.u.e y y y Z XXI.5.C 0 u Z c.o.e t 6 a - i s Z ..9.] &.0XhX&XD 0 + r 9 ; % : i : + y ",
"h.&XeX:X' p a G ( r a Z 0 0 0 : 9 :.N.(.7X7X^.F 0 : s S +X@XR.K u ; { W.6.S r.r.t ; i # : 0 ; a r z.:Xs.r d 2 : : : y y $ % y % ",
"t s.:X%X .y a D D w t w ; : : % t e.D.(.2XH.).z.u u s z @XF.(.M.y u ( S t.E.&X+XD a # 2 u @ y = u R V.:.w * 3 # : 2 $ % y 0 : : ",
"t t x.pX .l Z Z t w u % y 0 $ 0 ] E.M.(.6X].p.R u 2 0 k Y.m.q.|.w.#.$._.I.+X~.I.f a 2   2 i $ u > u } 0 ( O.% 2 & = = w y.I.f $ ",
"A a a l a Z a u M ; 0 y y % y $ j I Y u.^.u.f ; 0 y u C y.V.S R E.Y.L.2.S U %X-.D a : 2 2 y y a w $ & y i i : y % # # % f.h.a y ",
"s y y u : Z s a w w % % % + y : y $ 9 C y.2.0 2 p y u w ..I.f k ,.-.Z i t 3.Y.l s 0 0 a 0 $ a u a ; 2 & & & # % 2 @ 2 : % $ 2 . ",
": : i N 2 u p Z w a 0 % y % : @ # @ u $ u y @ d s # y e 8.I.S p 8 p - 4 z ;Xy.2 y y y w t 6 u B - u % O.O.w 0 % @ : % $ : : 2 < ",
"$ 0 @ - u 0 C U.O.0 ; : : y u @ y @ : @ : : # # 3 - p Y L.L.x y 8 u a w a.#XP > % 0 0 t 0.2.y 2 2 @ t L.Y.L.D y 2 : 0 a ( 0 % @ ",
": @ + - 4 0 Z x.O.% $ $ % % - : - y N a : u a w : G 1.T.Y.>.7 % 2 0 0 r L.#X=.: 0 u s D .Xc.a u y % t q.H.3X^.' 0 r r.I.c.a u 0 ",
"i     # @ : $ $ $ ; a u a 0 0 ; : u p 9 0 a 0 t t.Y.L.>.C 9 % s u 0 a y a s.=XG r w u ; / a ; s l 0 a P #X3X@XC.M.C.(.Z.p.p $ N ",
"< 3 #     2 # 2 $ u ~ a w Z o.a - y a l a : ; 0.D.!.K.k : - 4 2 y w y . 3 V 3.T.-.l 0 : a % u 0 >.c.u 0 L.3XH.J.F.'.1X].U a % : ",
"4 2 2 < . > r Y j y y w J R.I.j w D P.| t t t c.~.3X@Xd.i.n.M.F 5 u q | -.' L ^.(.C.E e 0 : : 2 ,.k.u w -.8X6X'.~.2X[.B.j # 2 % ",
"w a l & # , D L.m.*.j S :.Z.E.r 0 { x.' D ^ w p  .1.e.9.z.^.+Xt.: 9 =.R.+X:X^.D.@X~.>.k y 2 # # 0 0 q ..I.!.2X2X/.H.3X3.w u : l ",
"H p p y - > f Y.2X@XV.V.S.N.M.g : w C C ^ N 0 0 2 y : @ w Y M.Z.r f p.&XV.i.u.~.$X+X>.p % # * 2 ; { s.(.6X].3XOX3X].G.R.{ u s p ",
"P.' y 3 @ M e *.2X2X#XF.H.H.C.;.f F G D ( Z i : # 2 2 < # r %.A.L Y P.2.p 0 l p g f k N N y : y 9.:X3X[.'.[.G.2X~.(.].[.~.>.t 9 ",
"_.D 1 . y G C w C.#X9X3X`.1X2XOX~.V.>.S ( } A w u : : # # 0 I R.!.=XXX$ u 2 3 3 Z a y y 0 9 w Z r.^.!.@X).uX[.}.2XG.G.]./.~.j.C ",
"!.e X o Z ' D > !.).C.3X5X`.2XF.3X!.p.| ' l t A 0 : y y y 2 H +X5XOX5.a a u - 2 3 2 2 % % 0 r t p C S t t -.#X].].(.:.i.+XY.L.] ",
"0X>.r a Z G | 1.#X9X2X7X].G.qX@X#Xp.{ p / D Z M y : y p 0 - t ^.2X~.f 0 w G 9 a 2 y a y y a u 0 2 ; u : - u I.3X].z w ; 9 f z Z ",
"~.!.u.z A H L.8X].`.5X`.].(.C.$.K F M N ~ p a a d - # 7 y 4 9 Y.R.<.s c s 0 p 0 a y a a y % = = # y % % 2 % e.D.s.a 3 2 y 0 : 1 ",
"=.y.8.k t -.>X%XR.p.e.#XF.@XY l D A a C t q u i 2 % 9 a 0 @ : Z 6.a 9 u i y l j s y y 2 : 2 : u u 0 $ u # 0 ' z.( 0 % y 2 2 - - ",
"S S l 0 y a I h e r j M.(.~.h s Z A 0 0 l.0.% 2 y s A ( y 2 : u a % y u y w ..c.N : : @ # # @ : $ 0 u u 2 y p z 0 y % y @ # - 2 ",
"( l y u i u G D w y p z ^.q.e > a u y p U.z.y @ y a t p ~ u : y y 2 2 : : a 6. Xa ; - - # &   # u % 0 % 2 y : 7 @ u y s 3 - # # ",
"A Z s a : - a D a a 7 p <. .t ; t w w t S I D @ $ k | I.L G p p a s y : y w ; ; w 0 u N i 2 # 2 u @ w % : 2 2 y u % # : 2 3 <   ",
"_ G D Z y 0 k F i.L a s : ; a r C C A I P I C ; f >.R.~.p.*. .S D Z 0 % : i i n a M Z ( ~ u y y 2 a ..D 0 2 3 5 u @ : : # ! 5 X ",
"R F S D C C F 5.(.^.=.$ a a ] T.U.D C { I R M O.-X%X#X7X@X+XE.| H k a a y i u : M A ( ( Z a y y w I z.t.S a s s : : u s @ N i # ",
"G F '  .' ' G -.).#XC.t.P i.^.@XE.e w ^ H D a } *XgXqX3XtXV.>.I A a u u a 7.7.C N ^ ^ A M y a a f &.!.#Xu.>...' y u y ( Z : u 2 ",
"G I I ' (  .I | R.@X(.D.).8X7X7Xe.z u : M A Z a Y :X3X7X(.V.I D u u y : D -X-XP u Q B Z a u N a >.C.2X2XG.0XpXz.0 0 l f.dXu u % ",
"D I I ] ' { ( ' (.5.V 0.L.M.^.R.U F a y y } l a j z.#X(.2X^.] a i 2 4 a e r.6.b d Z F C ) a 8.+X!.].].@X:X0XpX} 2 $ A @.b.4   @ ",
"w M ( ( G G D G E.L.z p D f L.#XS ( y 2 s a Z t a <.p.M.Y.L.' y 0 y : : a s A > k -X-X{ s i M ..@X].6XtXrXtX>XO - @ N M 2 . X - ",
"' u m a C *.V.I.z.1.x s i M |.(.( y 2 # 2 s C Z y w e f S { a % w N ~ a i 2 2 : u.>X>XD y d 2 : U wXiXrXtXgX>Xr & : ^ s   . . 3 ",
"*X' y Z L.wX(.4.F t Z s N C i.).U.l y 2 & s u Z - y a a y a 0 y , Z } y - m N W.qXrXhX5.Z y i # t ,XgXhXgXgXfX_ : u D ( Z # < # ",
"] l : A Q.3X!.8Xy.D n n r T n.(.:X9.a y 2 u s s a Z Z Z s N 0 p 4 a l p C M h &X7XkXeXr.r 7 y % : sX*X*.C 8.c.` : 0.aXaXc.D ; @ ",
"G u - : H K | 6.=X|.v S L.!.~.0XtXeX0.a ~ y : y 0 k z k p a : 0 2 : ' z.L.V.+XeXtXR.&X>Xj.*.' r u 2.l a M D r 4 a 6.<XeX>XaXx.h.",
"w n 0 u w M Z l i.E.=.s.+XL.L.E.eXjXW.N N ; $ 9 e ] p.p.H ; % i # : ..:X~.~.0X&Xy.t ..z.E.^.:X&X` p l ^ i Z Z N u ( =XhXeXfX<XaX",
"W .X,.p Z a y / L.;X).8Xy.H r D z ' y 2 @ $ { { 0.p.;X+XF ; - 2 y w f L.(.!.K D w ; : e T ~.~.$X0.t D N i l l a 2 w L.eXV.K t.I.",
"9.&X#X&.k 0 u 0.9X#X&XXXI t a a 4 N y % : 9 t.F.Z.F.3X).M.S w u w a % a 0.T.;.f y y ; V w.C.!.!.( a C C ( Z a y 3 6 e.eXz.Z a t ",
"i.$X4XZ.>.-.&XgX9XhX,Xr.G N u : ` ( O y N C =.!.A.F.].G.R.y.{ 0 u s u - O M.E.{ 3 y 6 p.m.u.E z a Z { { _ M a y # f R.=Xh.y i a ",
"w.rX3X(.@X~.qXuXeX<Xp.D _ i - i oXz.k ( } I Y ).@XS.S.2XC.*.H p 2 y ^ : q L.fXG ; k f u.~.;.H n r D { { _ M a 0 I R.9X+Xf u u Q ",
"+X#XZ.R.%X:XtX2Xs.F F ( ( s B : I ' G D ..' | Y.@X@X4X@X:.S a a : a % w S #X8Xi.L.L.u.q.%XE C a a Z _ G G C p k m.~.(.@Xp. .a M ",
"=XI.L O S 9.=X+Xr p ( ( ' }  .I F G { C G G ..y.>.V.^.s.S t u u w Z w M e.3X(.~.!.~.~.~.OXq.P D a Z _ H C Z f ' 4.D.F.~.+X&X8.K ",
":X6.l ~ N ( aXI./ Z Z D ( y.r.S H C G ( ( ( { { G I  . .Z ; : y M p a $ I.).8XM.K &.u.).qXC.S C C D H M C Z r x 4.:.u.>.R.^.9X;X",
"eX6.u ! ^ f |.gXG  .{ ( ( G C S ( Z a s y a Z ^ Z D G Z a u u y N s y u O.1.[ 9 $ w j *.,XL.S D =.5.S C Z N 0 % 6 r $ r f V.8X4X",
"9X<Xb.s ' p.9X3Xz.| S G Z M M N p s u y 0 0 s ^ M G { G N 0 a Z u i # . - % y +.i i - u M C h z C.+X| G Z u u # 3 . 3 # p &.~.4X",
") jX:X$.=X&X@XH.#X3.S C Z Z a Z D C t B a x k n G I { I G Z u i y + y u 2 @ 2 N a i @ 0 F T J 1.~.#X(.~.p.G : : # % 0 0 4 i h.,X",
"C =XyX:XE.y.t.~.z.-.I C A Z l C H 6.I H ( [ Z A Z G ( { G t e p a y s y y : : a a u u Z s.Y.Y.!.F.@X3X#Xp.G u % < % r w u u I i.",
"I eXyXR.| Z 0 e C C D a Z D D Z | ^.n.P ( ' Z H A ~ ^ ^ D 9 I 5.a % : % : 0 a a Z s s a r.Y.].G.S.2X2X!.Y t 0 : - 0 l a p w t I.",
"D aX>X>.L / N n M A { Z G ( ' { -.)./.>.H G ' H D Z N u s $ 8.E.} 0 u 0 $ Z ..r Z u 2 ; S :.G.`.(.7X3X~.g 9 - - - 0 y y y u t |.",
"n 6.9.I ' G Z A A A ( Z D ( ( { s.3X6XY.I D I C I S a 2 - @ (  .s ; a w a 6.c.G y : : 0 0 S B.3X~.~.#X0X>.t : - y y : < 3 0 C &X",
"a u Z ' { { { G ( D D D { } G { t.(.].!.t.e.p.z.R.y.D N # i N a : 0 a a D ' } l u : N a a t p.~.>.U e.I.x.a y : 8 y @ - - r -.0X",
"Z Z ( ` D G ' ( D Z l ( ( | Y &.Y.3XH.F.F.(.(.%XL.8.C u + s a w ; 0 a Z { C l a y a D D D M 6.e.a q S ' o.0 : 2 y % 0 z P *.i.V.",
"G _ ( s ( { G D D ( Z } ' 8.i.&X).6X(.(.].[.].A.' k a 0 0 Z D p a Z A G G Z Z $ # Z S I a a Z r : ~ Z t t 0 y y 2 w 8.Y.D.B.e.P ",
"~ ~ C  .I I ' / G D G  .r.0X9X].).2XH.3XH.G.i.N D u : : Z C D Z A ( G Z C t p 0.{ D G D w M Z a p G f f 6.} 9 y a ] M.OX@XD.T % ",
"~ y A sX-X>.D ' I D '  ...h.L.E.).6XH.]./.H.m.a s y : y D S D Z D G M a t a l 2.G C D C a M a y l l l ...X7.0 ; % l -.i.Z.3XM.<.",
"y s ( -X>XE.9.0.L.-.{ { Z a 0 t %.F.].].D.`.(.9.a % @ a ( S D Z M Z M u w Z a Z H C C t a M a w a Z l t D 0 $ i 1 : a C T B.B.e."
};
