/* XPM */
static char *b3056cc5cf0a4d58a62373e5147d11e0[] = {
/* columns rows colors chars-per-pixel */
"64 64 256 2 ",
"   c #030302",
".  c #0A0503",
"X  c #050A03",
"o  c #0B0A04",
"O  c #03060B",
"+  c #050A0C",
"@  c #0C0C0A",
"#  c #0A070A",
"$  c #120C04",
"%  c #1C0E03",
"&  c #120D0B",
"*  c #180B08",
"=  c #0C1304",
"-  c #0E120A",
";  c #081706",
":  c #121204",
">  c #1B1305",
",  c #131904",
"<  c #13130C",
"1  c #1B140C",
"2  c #141A0C",
"3  c #1C1B0D",
"4  c #1A1C04",
"5  c #030514",
"6  c #050B12",
"7  c #0B0D13",
"8  c #090D1B",
"9  c #060B19",
"0  c #140E12",
"q  c #0D1115",
"w  c #0D131B",
"e  c #081316",
"r  c #141413",
"t  c #1B1412",
"y  c #161A12",
"u  c #1C1B14",
"i  c #13151A",
"p  c #1B151B",
"a  c #151B1C",
"s  c #1C1C1B",
"d  c #23160C",
"f  c #231C0D",
"g  c #2A1B0B",
"h  c #281805",
"j  c #341C0D",
"k  c #221513",
"l  c #241C14",
"z  c #2B1D14",
"x  c #241C1B",
"c  c #2A1D1B",
"v  c #211718",
"b  c #341D16",
"n  c #1B220B",
"m  c #1C2314",
"M  c #1D221C",
"N  c #182519",
"B  c #27260A",
"V  c #3C2205",
"C  c #242214",
"Z  c #2B2414",
"A  c #2B2C14",
"S  c #23231B",
"D  c #2B231C",
"F  c #2B2B1C",
"G  c #252A19",
"H  c #332314",
"J  c #322C13",
"K  c #33241C",
"L  c #332B1B",
"P  c #3B2C1C",
"I  c #3B2717",
"U  c #2C331C",
"Y  c #2A3215",
"T  c #32331B",
"R  c #3A311E",
"E  c #393C1B",
"W  c #353918",
"Q  c #38370B",
"!  c #0A1324",
"~  c #1C1E21",
"^  c #141721",
"/  c #281C22",
"(  c #1D2223",
")  c #1B2928",
"_  c #1E3227",
"`  c #1B3535",
"'  c #1A2D33",
"]  c #232421",
"[  c #2C2422",
"{  c #2D2B23",
"}  c #272C28",
"|  c #332523",
" . c #332B23",
".. c #3C2B23",
"X. c #342C2A",
"o. c #3A2A26",
"O. c #2C332B",
"+. c #28372A",
"@. c #343223",
"#. c #3B3323",
"$. c #343A22",
"%. c #3C3B25",
"&. c #33342C",
"*. c #3B342B",
"=. c #3B3C2A",
"-. c #333A2D",
";. c #2A3532",
":. c #2D3B33",
">. c #263A37",
",. c #343B33",
"<. c #3B3C33",
"1. c #363836",
"2. c #46280D",
"3. c #422B1D",
"4. c #452918",
"5. c #46381A",
"6. c #58361C",
"7. c #552E19",
"8. c #653A1A",
"9. c #452D24",
"0. c #492D29",
"q. c #433324",
"w. c #4B3225",
"e. c #44342B",
"r. c #4B342C",
"t. c #433B2D",
"y. c #4B3B2B",
"u. c #4B3B25",
"i. c #533325",
"p. c #54352C",
"a. c #543B2D",
"s. c #593D2D",
"d. c #573924",
"f. c #433B33",
"g. c #4D3B33",
"h. c #473A37",
"j. c #533B33",
"k. c #5A3C35",
"l. c #522C25",
"z. c #633829",
"x. c #653C35",
"c. c #703E25",
"v. c #441F0D",
"b. c #3A421B",
"n. c #3B4223",
"m. c #39432C",
"M. c #2A4739",
"N. c #354334",
"B. c #3C4334",
"V. c #35443A",
"C. c #3A453A",
"Z. c #344A3C",
"A. c #3C4A3C",
"S. c #374A36",
"D. c #29523A",
"F. c #38543B",
"G. c #2D482E",
"H. c #1D4133",
"J. c #44441C",
"K. c #494619",
"L. c #4B4613",
"P. c #694418",
"I. c #7A4B17",
"U. c #43432C",
"Y. c #4C422C",
"T. c #474626",
"R. c #54442C",
"E. c #5D432E",
"W. c #574625",
"Q. c #595828",
"!. c #444333",
"~. c #4C4334",
"^. c #4C433B",
"/. c #484A39",
"(. c #5B4334",
"). c #54433C",
"_. c #5B453B",
"`. c #544B3B",
"'. c #584936",
"]. c #475237",
"[. c #5D523C",
"{. c #565538",
"}. c #4B5629",
"|. c #67472A",
" X c #76492A",
".X c #785629",
"XX c #624433",
"oX c #684938",
"OX c #744C38",
"+X c #64543C",
"@X c #6B533C",
"#X c #6C5A3C",
"$X c #675436",
"%X c #76563B",
"&X c #615F2F",
"*X c #6A653A",
"=X c #756A33",
"-X c #596331",
";X c #1C3940",
":X c #2E3A42",
">X c #473E41",
",X c #394A42",
"<X c #375643",
"1X c #284541",
"2X c #336242",
"3X c #494944",
"4X c #5D4B44",
"5X c #5A4745",
"6X c #5B5348",
"7X c #575852",
"8X c #514F4D",
"9X c #674B45",
"0X c #764D43",
"qX c #685746",
"wX c #735443",
"eX c #725D44",
"rX c #7A5B4B",
"tX c #795846",
"yX c #705A55",
"uX c #596249",
"iX c #7C634A",
"pX c #776548",
"aX c #7A6855",
"sX c #6E684B",
"dX c #844C1A",
"fX c #A6731C",
"gX c #865936",
"hX c #8A522C",
"jX c #956835",
"kX c #877137",
"lX c #A87536",
"zX c #B07531",
"xX c #855C48",
"cX c #9B5F47",
"vX c #876749",
"bX c #86724B",
"nX c #92784F",
"mX c #856A54",
"MX c #877556",
"NX c #936752",
"BX c #8D7663",
"VX c #A47B67",
"CX c #AE8E3E",
"ZX c #959234",
"AX c #C68D31",
"SX c #9A8556",
"DX c #A88E4F",
"FX c #AD956A",
"GX c #B9A376",
"HX c #BBA66D",
"JX c #AB9856",
"KX c #CC9347",
"LX c #C0AA78",
"PX c #C4B07E",
"IX c #DDB24A",
"UX c #EDC755",
/* pixels */
"        X           X = X = -   O X y - ( Y F T @.F A n.W U.E E A W b.T.b.T.J.J.}.T *.h.U.T.Q W.J B 5.E B > $   X X X X X X     ",
"X X   X X   X X O X = = = 2 y X w m ; 2 a Y U m.W A %.{ u 3 $.E %.%.$.n C m F C [ | f 5.J.Q.W.K.Z h B J C . #   @ o       X     ",
"        X   X X @   o X X X - X 6 - n ) m U n.Y Q W U r q + O.W Q J.E U.Y.U.@.S A 3 [ =.Q.Q.J.T.R.T.J g 3 @ &   X X X X X       ",
"      X X         X m m m = 2 = = m U i m 2 b.T.E ].m 6 8 5 O = L.J.B n.T.W 4 - ^ X W b.T.J f E Q.5.Q J T B : C X @ X X @       ",
"  X   X             u m G , m G 2 o n.=.E u F 3 - O.@ 6 8 w 5 e $.] 7 r F = q 9 ! ! 8 ] T J.J.J.L.K.5.J A T 4 , < :       X   X ",
"            X o - X X = , = 4 G ~ X A J.T.C # 5 5 w 6 6 9 9 8 5 O 9 5 5 w 6 ! ! 8 i t 0 9 } T L.T.#.C { A , : & < < : X       @ ",
"            = = < < 2 , n n n B 6   u b.B o 5 9 8 6 6 6 8 9 w 6 5 w 7 w O 9 9 w ~ D j.b @ w # 0 < t 0 x 3 3 y # X : r < X     < ",
"  X X @ + X = = X 2 2 , n A A A O + 5 2 7 + 9 X + 7 e 8 w 8 7 s w 6 i i ^ 8 7 6 # k.OXk.7 ! w Z [ & i y o 4 : @               @ ",
"    o 2 : o o = X = 4 : X < u C + O 6 6 O 6 q 7 w 7 7 6 6 7 i a ^ a a ~ ] ~ a i q X.4X/ w w & j.p.c 0 7 < A J B G X   X O   X   ",
"    o : : : 2 2 , 4 B , X 5 6 O 6 9 O 7 q i 6 6 O 6 w ~ ( ( a r w a ] } } ] ] ( ( l k t w w 0 r...k q q @ C Z C < 3 :     X     ",
"  X - < < 2 < X , B Y u @ 5 5 O 5 w e 6 q 6 + w a a a a ~ ~ s a q M { &.@. .{ { [ { S s i ^ r x u 7 q i @ $ < l   $ C :         ",
"X X X     o @     < C < X + + @ w 7 6 O ~ i w w i a s ( ( M ( ] r S &.f.f.t.*.@.f.@.-.O.] p p q i 7 i p # & $ > o : #.l X   @ . ",
"X           X     # < X X @ @ @ 6 6 q a M M M a a s s M S ] ] S } s r l | f.^.^.g.L @. .X.| ] y i a p 0 & D g % $ z L $   X   O ",
"      # O       X X @ . & i 7 6 + q a } y M S O.O.] s u x S S S / [ X.X.D x Z  .f.t.~.`.y.y.L S x t t t 1 l g V g h g % . .     ",
"@             X X X . . r p 7 i a s r S S { [ { [ D c c D [ D D | [ c [ *.e.*.| t.~.(.pX#XY.R q.K l k x r * % 2.2.V V P 1 r < X ",
"            X   @ @ @ @ r r r ] ~ s s u *.F D D | | X.| c l D | | K c l c K ..o.{ t.3.d.#X$X#Xp.q.P z p i p d j V 2.V j % < @ = ",
"  .     X X   X r : X - 7 a ] #.( s r x x { *.*.| K L q.u.E.XX|.XXXXXXoXp.I C { *.| e.d.%XvX|.$X|.d.7.b k & & $ . t x o   X @ X ",
"      . X     @ & @ < S y S @.%.M u | [ [  .K 9.qXXXk.XXoX0XoX(.p.rXrXXXi.9X9Xk.3._.K y.@X%XkX.XgXgX8.6.I l $ r . . .     X     ",
"      # X     @ . p s G T U.E A F | K ..e.P _.oXs.XX0X0X9Xr.| c r.K c e.9XrX0XgXOX4.y.e.j.z.DXlXzXlXI..X8.b t   .       X #     ",
"            X   . x p 3 n.{.%.D Z ..e.K e.4X9X(.a._.g.z $ t x p t p i @ <  .XXrXxXxXOXw.k.XX XCXAXfXIXCXdX8.j r     X     X     ",
"            .   $ & t 3 n A D x ..K ..g.).j...r.e.x t s s a p / x p s ~ a & u F s.vXcXOXi.r.%XjXAXAXUXUXzXdX7.d . . .         X ",
"      .       < l l { S C C x [ K ).r.j.g.e...c t p x / / | [ l c / / / / p r q D s.xXNXOX4.XXOXfXAXUXIXAXhX7.I < .   X       @ ",
"              r & y F y [ { D  .3.w.(.j.g.*.k c | | | [ / x K ..| c c k / x x p t 1 I mXNXvX6.oXhXlXfXAXKXlX XI 1 .             ",
"  #           & s o G m p x D J (.XXs.w.e.D | *.0.K M _ +.O.*.r.X.X.&.S u u c c / q y K OXcXc.|. XjXKXKXzXdX6.3.l 1 <     X     ",
"  & .   X     y s   { - u D ..w.wXoX_.1.c 4.s.9.] O.&.-.+.&.y.z.w.w.g. .} M x b K b t a f.vXgXl.|. XjXjXgXx.2.h h k t o         ",
"  <     @ #   @ X u 2 S Z K g.oXxX@X~.[ ..0.e.S } ,.<.B.N.<.~.XXx.k.~.&.:.+.} M D K c p * E.vXOX|.|.%X XP.nXSX4.% 1 D 1 X   O   ",
"  t . & X .     < S F D z ..w.XXOX(.D ..w.j.{ +.+.N.B.B.N.,.!.~._.~.!.-.,.,.+._ ]  ...k k 3.xXOX6.OX|.|.DXJXJXVXP % k f :       ",
"X r . &     . . X X <.t.K r.w.OX%X9...i.k.X.} +.:.N.B.C.V.,.B.!.B.B.C.,.1.,.,.O.) u ....k d wXvX%XOX|.kXJXDXCX=X+Xh 1 L C X   X ",
"< &   & $ . $ $ < $ 3 t.K 3.d.OXwX3.p.z.i.} >.+.:.V.S.C.C.V.A.C.Z.C./.<.,.,.&.&.;.} z ..c l H iXgX0XoXbXDXkXZX=X$X% d P f o     ",
"X     & 1 . * * & 3 1 f ..w.wXvX+X4.z.x.K } :.<.,.N.V.S.V.V.A.A.,X^.^.<.N.M.:.&.O.] D P K x % i.lXgXz..XCXkXZX=X#Xh g u.Z <     ",
"    X 1 1 1 $ 1 $ D ^.z e.9.wXxX_.d.x.r.&.+.+.N.N.A.S.S.V.V.,XA.3X<.h.&.,.:.:.O.F O.} d P l t g.jXvXOXP.kX=XZX&X#Xg q.u.Z .     ",
"      1 l D $ * 1 1 D z K 9.wXtXr.oXd.*.O.7X-.G.,.N.N.N.N.V.,XA.,XV.Z.:.,.,.,.,.y.1.) z P D t c oXoXd.wX%XaXkX*XW.I qXy.Z . @   ",
".   X r k j >   > $ 0 0 l e.9XwXe.j.4XB.g.!.-.:.C.N.V.S.N.V.3X3X3XV.V.:.>.O.f.e.r.0.f.D I P l k  XvX|.GX|.oX@XXX5.%XvXW.Z @     ",
"  X   @ k +X[. .#.K [ l D e.oXoXK 9.r.F qX<.+./.G.N.S.m.-.C.V.,XC.V.C.:.:.,.~.q.....e.#.H 9.D K  XxXd.LXGXnXOX%XvXbXpXW.L @   O ",
"  @ X < * E.#Xy.y.P K 1 z q.wXxX..r.g.F aX-.} C.A./.^.4X4X4X7XC.V.V.V.:.;.<.~.9.*.@.o.e.z r.b K OXwX|.LXLXGXGXSXSXnXvX$XR @     ",
"@     1 d 6.=XE.R.y.q.d ..r.wXxXw.p.p.F ).+.,.V.N.B.h.r.).4Xf.!.Z.V.:.;.:.&.t.r.f.&.*.r.H a.4.L  XwX%XPXHXLXGXSXbXbXbX#XJ o     ",
"    X l k 5.vXiX@X@Xy.d e.r.XX%Xq.a.k.{ | ) :.O.F.Z.N.V.:.,.7X7X,XM.>.;.:.O.*.g...&.e.0.H w.4.#.vXwX%XGXHXFXFXSX#XbXbX#XJ o X   ",
"O     < k '.bX@XeXpX'.g | ..(.vXy.9XyX!.h.+.:.,.S.F.<XM.M.+.N ;.Z.M.>.>.>.;.&.f.e.*.e...H 9.4.y.OXwXwXSXGXSXMXpX[.aXpX+X#.:     ",
"  X @ < p '.pXiXiXvXpXq.D c j.tXy.p._.O.&._ :.C.].F.S.Z.M.;.:.1.,X1X>.>.>.>.;.&.h.h.X.] ..q.I XXwXa.+XMXpX+XqX6X^.qXR.~.=.y     ",
"X   $ X p R #XmXvXpX$XR 1 c ).@Xy.9.j.&.} >.G.V.G.F.F.Z.M.M.>.1X<X1X>.` :X>.} O.M } ( ) o.3.j wX|.(.qXMXsX`.*.&.<.6X#.L  .u     ",
"    < @ > q.'.$XMXyX|.Y.1 H e.9X@Xs.x.).) :.,.G.D.2XN.Z.M.M.:.M.,XM.>.>.` >.` :X;.) } x e.K P rXoXs.sXsX].!.@.&.S *.C C F <     ",
". X X   $ ~.BXpX#XBXvXMXt.K Z g.rXE.k.9XO.>.M.M.F.<XF.<XM.M.<.8XqX7X8X>.` ' ` ` ) >.( X.0.9.a.wXwXa.qX%.`.!.=.@.x C 3 A Z X   X ",
"    i   o 1 Y.R.mXMX#XMXy.1 h h.rXOXXXwX4X_ H.V.N.D.<XD.M.1X5X4X_.).8X:X` 1X` ` ) ) ) f...j wXrX_.q.[.R.[.qX!.3 r : l S 1 X     ",
"  X   @ o l Z qXpXtXpXnXmX!.qX&.eXxXOXXXmX&.` V.N.D.F.D.M.M.4X_.!.^.h.3X1.>.>.' ) ;.O.o.r.9.wXtXg.t.Y.qX[.sX!.3 : : C 3 X X     ",
"  @ X X & . d ..R.|.W.vX4.F T.3X9XNX%X@XXXaX) :.Z.D.Z.M.M.+.4X`.7Xh.qX).3X>.` ` ( 1.h.e.H 9XwXa. .`./.qXsX~.D < t : 3 : X     X ",
"  @   . 1 l K [.Y.oX X.XW.R.T.@.!.wXNXoX@XoXyXO.+.D.Z.M.>.;.6X`.3X5X9X).C.` ;X` O.h.g...j.yXy.#.=.`.m./.^.Z C m 1 < < X   X   X ",
"#   . . K K h H Z H P..X X$XT Z f.K BXwXOX0XtX`.-.M.C.>.>.>.5X5X3X5X4X<.' ` ' ;.6Xg.0.g.qX9Xg.{ $.=.-./.{ S u y < < < X   X     ",
"  X   k % I q.I Y.z .X.X|.%X/.t.h.U '.VXOXwXOX@X7X:.:.>.>.>.h.qX6X).^.) ;X' >XXXe.k.0.qX4X9.| O.%.-.} +.u [ y y u @ - y @       ",
"  .   & * > i.j p.jX XXX6.f.<.]././.d oXVX%XOX@XoXqX3X:._ >.;.1.h.&.&.O.1.3Xg.r.g.g.9X9XK %.%.m.-.B.U G =.U F F : - < . # . o . ",
"X &     K d i.s.8. Xs.y.=./.Y.].]./.=.g wXBX0X9Xy._.4X9X5X3X1.;.+.,.8X6X3Xf.*.f._.qX).g.P T {.U b.}.{.*X{.U.m m y < -   X X & & ",
"  . @ * b g p.4..X, _ %Xc.:.A.4XA m y X.b aXrXrXOX|.XXoX_.9XeXaXyX9X5Xg.0.r.p.p.j.r...t.`.uXb.uX*X*XQ.&XsXT.$.2 y < @ X X       ",
"    X * . % l.j I hXk.a @.B.G.N.W U = r 1 e.eXpXNXOXR.'.~._.oXxX9XoX).t.t.)._.k.r.z | !.].{.{.].{.J.B Q }.].m 2 : @ o @ @ X   X ",
"  . @ | K D 4.g J I.d.< 1 } G K Q.-X}.{ < l ).aXaXMXBXBXwX(.(.@XR.'.9XaXaXqX6X`.^.*. ./.m.n.].Y F $., B $.@.S s y - X   X X X @ ",
"  .   * l 1 b z I l.0XP.g ) =.F.}.b.b.$.B.C e.w.{.{.XX%XtXaXpXpXmXmXiXiXrX@X'.q.@.F F G = !./.$.m } +.m G y < ] M r X           ",
"  . X . .   k t j 3 Z 2.| ..8.B +./.n n.m.n.E T.q.r.q.y.R._.(._.W.E.R.Y.U.U.U.#.Y U G F !.T n 3 = O.G O.< : X @ < - X X + < @ X ",
"      & .   .   . ; X 2. X7.gXn N U n b.n.G.!.~.+XeXeXiXmXaXeXpXaXaXiXmXiX+X{.U.].U G !.%.~.!.@.E %.=.&.< < < X - @   X X - X   ",
"        .       +   @ t g H J T Y W U Z #.'.[.qXeXeXpX+X#X#XeXeXiXpXpXeX$XeXtXxXqX5.Y.#.$ `.`.A J 4 G N ; X X o X X :     .     ",
"              X * D X m L E.v.oXE T A U.6X[.'.+X@X@XqXqX#XpX@X+X#X@X+X#X+XeXtX%X'.+XY.R C !.F 2  Xd.R.f : - S X X o   X X   @ & ",
"        X   X - H Z > u.d.4.@Xh U $.T t.`.`.[.[.+X+XqXqX#XeX+X+X@X#XpXeX@X$X@X@XeX#X+XY.D : y ; 2.XXR.: m ; N m s S r : @ X @   ",
"X X X @ @ @ < s > g w.i.7.5.= X , C < : 1 f #.R y.t.~.~.'.[.qXqXqXqXqXqXqX[.[.'.Y.Y.R f D @ u - X n n ; ; ; n , @ @ < X X r @ @ ",
"              & o l 1 > o , X y < <   X $ o < : 3 l l f h Z Z C F Z L Z L C C C f C z D 3 1 C L 2 y 2 m 2 3 f > t & < @ X X   @ ",
"  . X X X   . @   @     ; X @ & u < o 1 u : : $ o < $ f d #.Z l 3 C Z C C f C S F C l z Z L Z H Z L D S x t v x 1 u < : @ X < & ",
"        . X . X X - @ & & : u l l x Z D Z Z D D f Z z P I y.P L D L Z A T %.L F @.@.~.L f #.`.Z D : 3 u 1 u s X $ u : X . . &   ",
"        . o .   o $ . * < < 3 1 1 % l z z z H L H H P q.u.R.u.y.~.`.Y.U.%.%.A Z P R L L L l C l u t u 3 f 1 $ > $ . & o # & . . "
};
