/* XPM */
static char *_eead324cd5b4645f34aafa56dddbddaJQt3JI923c1cqn7I[] = {
/* columns rows colors chars-per-pixel */
"64 64 251 2 ",
"   c #733D31",
".  c #61423C",
"X  c #7A5449",
"o  c #79665C",
"O  c #833F29",
"+  c #8A442D",
"@  c #964A2C",
"#  c #8B4A35",
"$  c #964D35",
"%  c #8C533F",
"&  c #88583D",
"*  c #9B5134",
"=  c #95523E",
"-  c #9B543B",
";  c #9D5A3D",
":  c #975635",
">  c #9F572F",
",  c #A9542E",
"<  c #A35533",
"1  c #AA5B34",
"2  c #A3563A",
"3  c #A45B3C",
"4  c #AC5C3D",
"5  c #A65935",
"6  c #B25D3C",
"7  c #B55C37",
"8  c #B1562E",
"9  c #9F6039",
"0  c #AC623D",
"q  c #A7623B",
"w  c #B3633D",
"e  c #BB653D",
"r  c #BA6639",
"t  c #C3683C",
"y  c #D1753F",
"u  c #8C5A4B",
"i  c #885445",
"p  c #935543",
"a  c #9D5C44",
"s  c #945B4C",
"d  c #9B5E4B",
"f  c #985843",
"g  c #8F5A4E",
"h  c #A45C44",
"j  c #AB5D43",
"k  c #A35D4A",
"l  c #A65B47",
"z  c #B25E42",
"x  c #8B614E",
"c  c #95614C",
"v  c #9D624C",
"b  c #9E6443",
"n  c #8B6658",
"m  c #946353",
"M  c #9B6553",
"N  c #9C6A54",
"B  c #946B5C",
"V  c #9B6D5B",
"C  c #976856",
"Z  c #9C715C",
"A  c #95715F",
"S  c #A46245",
"D  c #AB6244",
"F  c #AB6944",
"G  c #A4634C",
"H  c #AB644B",
"J  c #A56A4C",
"K  c #AD6A4D",
"L  c #B36344",
"P  c #BA6544",
"I  c #B36A44",
"U  c #BC6B44",
"Y  c #B2664B",
"T  c #B46B4C",
"R  c #BC6C4C",
"E  c #B9664C",
"W  c #B3714C",
"Q  c #BD724C",
"!  c #BD7046",
"~  c #A46552",
"^  c #AB6651",
"/  c #A46B54",
"(  c #AC6B53",
")  c #A36D5B",
"_  c #AC6D5A",
"`  c #A0675A",
"'  c #B36D53",
"]  c #BB6E53",
"[  c #B26E59",
"{  c #AC7155",
"}  c #A4725C",
"|  c #AB735C",
" . c #A9765B",
".. c #B57355",
"X. c #BC7354",
"o. c #B3745B",
"O. c #BB755A",
"+. c #B5795D",
"@. c #BC7A5D",
"#. c #BC7B56",
"$. c #8B6A62",
"%. c #996E61",
"&. c #947364",
"*. c #9B7363",
"=. c #9B7669",
"-. c #9D7B6B",
";. c #9A7869",
":. c #9E7C71",
">. c #A47563",
",. c #AB7562",
"<. c #A57965",
"1. c #AB7A64",
"2. c #A47C6B",
"3. c #AB7D6B",
"4. c #B37B64",
"5. c #BC7D63",
"6. c #B37E6B",
"7. c #BB7E69",
"8. c #B47661",
"9. c #A67F70",
"0. c #C26C44",
"q. c #C26E4C",
"w. c #C66A44",
"e. c #C3724D",
"r. c #CA744C",
"t. c #C7774A",
"y. c #D2794B",
"u. c #C26D51",
"i. c #C27454",
"p. c #CB7652",
"a. c #C47A55",
"s. c #CB7B53",
"d. c #C3775A",
"f. c #C47C5B",
"g. c #CA7C5B",
"h. c #C97759",
"j. c #D37D53",
"k. c #C37E62",
"l. c #CA7C61",
"z. c #9D8173",
"x. c #9F8579",
"c. c #9C806F",
"v. c #A5816E",
"b. c #AC816D",
"n. c #AC8167",
"m. c #BD8265",
"M. c #B4836C",
"N. c #BC846B",
"B. c #BC896D",
"V. c #B58469",
"C. c #A58273",
"Z. c #AC8473",
"A. c #AD8875",
"S. c #A4867A",
"D. c #AC8779",
"F. c #AD8B7B",
"G. c #A6897B",
"H. c #B38572",
"J. c #BB8673",
"K. c #B58A75",
"L. c #BC8B74",
"P. c #B38C7B",
"I. c #BB8E7A",
"U. c #B58778",
"Y. c #B5917D",
"T. c #BC937D",
"R. c #BC9176",
"E. c #AF917E",
"W. c #C5825E",
"Q. c #CC825D",
"!. c #CA8357",
"~. c #D3845D",
"^. c #D68758",
"/. c #C48264",
"(. c #CB8463",
"). c #CD8966",
"_. c #C4846B",
"`. c #CA866A",
"'. c #C48A6D",
"]. c #CB8B6C",
"[. c #D18663",
"{. c #D38B64",
"}. c #D38D6A",
"|. c #DA8B62",
" X c #CE916A",
".X c #D9936C",
"XX c #C38C73",
"oX c #CB8D73",
"OX c #C28E79",
"+X c #C28571",
"@X c #C39174",
"#X c #CB9275",
"$X c #C3937C",
"%X c #CC947B",
"&X c #CC9A7D",
"*X c #D39373",
"=X c #D49A7C",
"-X c #D89976",
";X c #D48F74",
":X c #DBA07C",
">X c #E0966D",
",X c #AD8E81",
"<X c #A68D84",
"1X c #B48E81",
"2X c #AD9184",
"3X c #AA9388",
"4X c #B49383",
"5X c #BB9583",
"6X c #BD9985",
"7X c #B49A8C",
"8X c #BC9C8B",
"9X c #B79789",
"0X c #BB9D91",
"qX c #B39C91",
"wX c #BFA08F",
"eX c #BDA293",
"rX c #B8A398",
"tX c #C29682",
"yX c #C39A84",
"uX c #CB9C84",
"iX c #C39D8B",
"pX c #CA9E8B",
"aX c #C89581",
"sX c #D19C82",
"dX c #D59D85",
"fX c #C49F90",
"gX c #C4A18D",
"hX c #CBA28C",
"jX c #CBA186",
"kX c #D3A48C",
"lX c #D9A588",
"zX c #C4A493",
"xX c #CBA592",
"cX c #CBA996",
"vX c #C5AB9B",
"bX c #CCAC9B",
"nX c #C4A799",
"mX c #D3AB95",
"MX c #D3AE9B",
"NX c #D9AC94",
"BX c #D7B29C",
"VX c #CCB09E",
"CX c #CCAFA1",
"ZX c #CCB2A2",
"AX c #C6B2A8",
"SX c #D2B4A3",
"DX c #D8BAAA",
"FX c #D1BDB3",
"GX c #E0B9A1",
"HX c #D6C3B8",
"JX c #E2C1AB",
/* pixels */
"*.2.Z Z b.1.K.A.v. .K ..b. .,.M. .b.3.1.4./ N b.} ) ) 1.v.*.,. .} <.D.Z.,.} N 4X2.,. .M.F.D.2.,.N V ;.*.;.&.B C.*.>.V } =.*.V C ",
"Y T Y *.h h | j { K 0 F Q Q m.q 3 5 5 1...P U U H 3.T H H 0 N @ < ; a 1.1 4 { S  .M S k ~ G 2.h 2 = - Z + + O + c c 0 w S  .N - ",
"K N.D *.; j T h N J q q W !.V.q ; ; F } T Y Q 5 G / 2 $ h - &.# < 5 - | 6 < * * v ) D Y H H *.- H - h >.# - + # s c < 7 3 s V - ",
"z.<.,.Z.6.P.C.Z.5XI.1.F.} M.P.P.D.C.A.5XC.D.S.9.Z.D.<.=.2.<.9XF.F.G.4XZ.| V &.*.P.P.*.<.:.N *.) <.2.&.=.V B *.&.b.b.| | 2.z.S.*.",
"Z.H j 5 l N.F.j ..O.' Z.~ H G d 6.4.5.j Y D ;.f G ~ [ _ ~ 4 f G # :._ - 5 @ M ) j 6 I 4 =.~ 1.~ a M f - $ $ d -.# $ * 2 } i   # ",
"A N ~ / c 1.S.d u s M z.C.<.2.P.P.;.*.M | p z.u i C V >.m M m %.B ;.} G G + u s f 2 4 4 =.&.=.v.2.-.M G % i m -.% p % % n n .   ",
"M.o.8.8XA.+...X...,.6._ ,./ <.9XD.b.1.N.4X4XZ.K.I.P.Z.<.%.2.<.;.M.tXZ.6.Z.3.K.Y.J.P.=.3.P.K.<.F.H.2.2.4X0XF./.8.O.,.=.V.4.{ / >.",
"L 1 2 S ..t r r r K ^ ' D 3 ^ N.F % = - P.~ G H G d _ v G o.d >.* z Y ] | W.] 5 5 ; 2.( T r @ A ^ G ( H.3.V 2 * @ ; B /. Xe.e H ",
"2.2.2.,XnXM./ @.V.4XA.2.*.Z.5X8XF.2.M.1.4XZ.*.b.D.9.z.C.F.>.V Z.} ) } M.Y.-.,./ <.M S.>./ ( N C.Z.4XY.*.2.C.<.B n Z.,XZ.|  . .>.",
"; H.k p 2.m Z.X.X.X.T / V j - D H 7X$Xe 0.s.f.=._ 7._ Y C...o.H ] H.( U L ] N.,XJ.3.5XM.G...d./.].%XeXf.5.O.a.>.F.*.u &.o 2Xh K ",
"T =.p i i u 2.' ] Y - c / T D { | rXHXe.T T /.P.1._.H # &.m.o.h F / $ h Y L ] 3.^ @.5.o.<.T P e 0.X.Z P i.] w u i u i i . $.- T ",
"VXcX$XY.M.I.yXT.P.4XzX9X4XZ.C.P.2XrXFX3X0X7X4XqX<X:.Z.P.6XeX2X3.2.8X6XK.D.P.6X7X,Xz.4XT.6X2XC.D.-.3XrX4XS.D.Z.7X<X<XS.S.S.3X2.2.",
"h * r m.< < 1 * h 1.( ~ ~ ^ 2.k M M ,.C.v k ( ( | 1.j p.a.s.H.4 - h L 3 M.f.'.%X%XF.H K Y ( ) =.m ) ~ G <.H ( ( L.<.>.- l 4 2 B ",
"h 2 ; b./ ' G o.( >.n n x %.*.M M M p B ~ H G G ) 1.a Y U R >.2 < w w L *.^ X.Q.a.*.< L P ' _ %.~ ^ ( ~ =.S a h a p V H K - H C.",
"XXM.P.I.I.XXuXhXXXJ.@XP.9.MXmXyXgX5X8XpX6.<.2.C.tX#X@XXXP.T.yXB.L.yXzXT.yXD.Y.4XC.eXD.C.C.Y.D.P.D.S.9.3.Z.3.2.-.2.2.2.b.H.V Z Z.",
"Y D / 3 < < , 3.T T O.' >.o.8.H N.( Z.o...( S M.0.e 7 U B.a.I S Y I 6.K w o.- B <.v  .6.*.G Y l ~ F.,...O.Y 4 4X% H - - G : > > ",
"{ / A M 8.o.( D.*.<.H.K.8X6X<.2.1X9.x.=.2.Z.3.2.o.f.O...M...T J J v F.B.K 2.h -.&.<.1.M &.d G / V $.$.M G G $ z.u ) G N B & : : ",
"(.p.X.4.$XuX4.#Xm.M.T L W.#.Y.B.#X%XkXuXJ.+X%XsX%XT.5.`.H.U.4X*.OXuX$XH.E.uXcXxX8XC.P.J.XXT.H.M.M.T.I.$XZ.1.4.B._.F.5.o.O.o.<.m.",
"d.e...uX#X].(.(.f.3.O.Q.e w H.*X(.B.o.'.@.}././.a.L.w.t Y k 1X~ E X.4 2 2.+.oX_.X.1.6.X.R g.7.5.(.Y R d.o.r.j.j.s.6.D 4 6 7 } #.",
"5XT.H.T.T.T.yX4X6XzXgXyX6XgXZXgXyXI.H.iXzX6XT.2.6XbXiXxXzX9XZX5XyXK.H.2.rX,XC.D.C.7XC.3.,./ 3.I.M. .( { C.4...G H =.V ) 8.1.F.1.",
"' ( / K T i.0.>./.]._...m.H O...H b I.7.7./ 3 P.o.#XlXuXuXyX*XkX#XN.hXR f.k.m.Y.o.d._.X.4.D.8X6X6X4X8XI.L.OXm.M.5.5.XXF X.Q.f.B.",
"G i v L L j w v.*X-X(.2 / M h h ; # 2.o.O.] $ } H g.).H _ o.(.}.Q.s.4.d.X.f./.>.h D 8 e 2 <./ M ,.a <.j H T U a w 0.J + D a.P J ",
"B.XXsX@XiX%XL.Z.M.P.zXiXpXmXbXyXpXlXmXgX8XT.hXyXH.K.J.$XiXyXM.b.@X@XiXb.n.I.I.F.G.C.I.L.L.Y.2.C.T.<.v.V 2.1.4.C.K.J.3.Z.>.Z.3.3.",
"I 0 y.s.I.d.X.R R m.X.q.p.[.DXJX|.>X^.i.L.e.~.q.p.XXs.p.q.l.f.kX! 2 Y jXJ.' T Y 3.aX].lX(.O.K.o.P P g.@XM.X.K Y.].].Q.k.XX<.a p ",
"m.X.X.' C.| { ..' 1.( o..._.uXcX`.`.O.h 2.* T O._.T.S R i.d.yX4.Q h 5 N.'.' Y H H.tXf.:XNX_.H.i.p.e.i.k.G 0.K gX/.(.g.k.N.X d # ",
"xXnX9X$X$XpXjX6X_.=XkXjXjXlXkXBXBXhXcXfXzXiXxXL.%XmXSXvX4XyXhXvX4X4X$XjXuXjX5XF.T.5XH.P.4XZ.yXB.$XP.H.yXT.v.A.5X3.b.M.C.C.fX7X,X",
"(.uX| d.d.R Y '.~.j.~.Q.m.s.~..X-X/._ j H oXoXi.~.5.R 5.5X^ _ ~ 8.xXt.y y.y.}._.~.r.< e m.1 3 7 s.'.s.f.(.yXI U 1 1 F 1.h Y T h ",
"M.P.D.C.3.6.M.T.| ,.| 8.n.( S ( m.K.D.2.1.I.H.4.@.$Xo.o.D.m V m >.F.T U R a./.o.Q r w S N e.D I T N e.e.' x S W K b b V $ = H = ",
"/.{ +.I.OXoX=X`._.| Q./.*X%X5X_.XXkXXXiX%XsXyXiXnXqXXXoXkXhXbXpXxXxXI.8XB.XXyXiXzXP.zXCXzXA.D.&XkXlX#XB.P.M.4.B.K.L.M.$XL.b.<.,.",
"_.@.8.I.m.`.*Xf.].m.e U s.k.H.u.E E E J.f.]./.l._.8.L P 6 L M.P R l.u.L.H j ] O.O.b._ ) k H 3. X=X.X[.'.$Xf.`._.J.; R q.e ' X.j ",
"eX4XY.eX9X9XG.4X8XzXb.2.P.8X0X$XH.<.H.P.M.@XI.M.I.yX$XB.J.M.P.<.1.Z.J.8X3. .) ) _ Z.&.B u M C.<.%XN.o.N.9XM.| 1.Y.# I T S V m % ",
"'.uXU X.Q W H.`.i./.d.%X2.6.- ^ o.#X^.^.^.^.L..X(.O.' 5.'.*X-X.X).5X_./././.N.]./.*X#X].$X%X%X#X/.T.5.oXyXXX#X6XsX_.+X+XC.H.M.4.",
"m.L.e.! I 0 T.g.d.e.X._.3.^ H 2 Y $Xe.^.|.a.{ }.[...H XXk.g.|.|.}.| 3 F ] s.m.e e w.p.e.8.h.X.o.U N.s.g.0.r r | l.(.X.] *.H l h ",
"yXzXyX5XyXuXxX5X6XeXiXgXSXvXzX5X$XhX8X6X$XMXDXSXcX$XT.zXiXjXI.oXaX9XZ.1XI.tXiXM.J.M.I.I.Y.M.b.M.J.Y.M.| ,. .<.S.1.,.3.9.c.| >.<.",
"1 1 ! V.o.f.g.i.| 4./.sXg./.+.I L U U V.< 1 7 r.Q.T 0.t t t 3.y.j.~.I 4.Y O.O.' f.>.f.Y /.).,.o.^ O.d.3.6.,.1.J.1X5XyXXXoXk.2.1.",
"7 L p.<.' _...] 4.o._.+XH ; v L i.S - I.4 e 7 r.O.T 6 w.w.t  .s.{.{.0.a ] ] l.d.X.M L 2 + * M G ^ ^ P o.~ l H o.~ >.o.S * @ V H ",
"iX4XC.pX$XL.3.Y.I.9XnXHXrXcXMXyXL.T.iXDXT.iX8X0XbXiXT.T.Y.P.yXH.K.yXT.gXtX5XyXb.I.T.@XhXgX5XeX5XF.6XF.4XF.H.>.,X7X7X8XfXC.2.8X0X",
"w o.L.O.l.i.L { ] j o.3.Z.a.i.0.8 k.O.R q.E ' M.' X.U i.I.%X(.] _.m.o.(.!.}.a.V.y.U e e #X,.^ S h _ 4.5.k.O.5.<.^ = - ( H.M g C ",
"k >.P.1.L._.o.H.5.( ) M C.o.K 4 H J.3.O.O...' 2./ G M >.6XK.5XO._.J./ ^ O.f.s.J.T U D R $XM _ ( ~ I.3.5.5.[ m n d p $ h ) i s s ",
"DXcXSXSXDXNXNXGXBXBXvXzXSXDXbXSXpXxXkXdXcXaXkXNXmXBXgXlXlXmXuX6X8XiXcXzXwX9XzXCXzXzX8XhXcXmXbXvXrXxXgXhXzXF.CXAXrXx.z.P.8X8X4X*.",
"D g.d.d.+.i.4 X.}.oX} L L H j H.P L u.r.O.e.~.|.~.g.>.r.y.s.^./._.] ;X_.(.o...#XY H P.i.e.U s.].} T I U W.iXo.m.8.) *.- ' K O.( ",
"| | ..o.K.I.Z.{ N.T.C.>.,.V ,.P.6.6.,.M.I.M.B.`.i.k.A.o.O.X.!.'.4.o.4.o.o.M.T ^ K ^ Y...U X.@.M.J ..T 0 m rXK.7.| ~ B - K H ^ 1.",
",X,X7X'.@./.-X=XmXW.N.sXdXvX1.5X8X9XH.%X7.N.8X6XgXU.iX8XDX7XuX=XlX*X).P.xXxX8XiXiXpX&XsXXXXXL.L.aXB.$XY.iXK.8.I.0X7XZXiXiX8X9XyX",
"s i *.X.s.e.U q.m.R e.^.s.M.~ k v k ) T ] Y j l ,.^ l Y f C.H p.e.Q a.C.b v K O.6XoXo.@./.oX{ T XXf.O.1./.X.T D 7XS.p a h ' b.a.",
"2XG.eX9XL.tXxXzXZXcXxXxXhXeX2X9X8XP.vX4XF.Z.H.zXeXeXbX8XG.ZX4XOX$X$XK.eXb.<.M M.7XZ.4.,.J.gX7XK.>.<.3.D.'.4. . .8XX B V c ) *.m.",
"OXaX5.tXJ.O._ 4.o.K.|.}.-X*X@X8.k.}.O.=XT.#XkX=X`.T.6.' `.&XzXmXzXMXkX=XdXlX$X(.sXoXk.K./ h 4.( _.D.4XH.D.P.D.pX5X8XP.C.I.XXL.H.",
"5._ / N.,.' O.~ 5. .s.~.s.r.8.h 2 D 2 X.N.;Xg.5 3 / L 4 , l <.O.4X@.s.r.i.oX} L Y Y T 1.P i.g.r.].2.) o.( ( *.4.4.o.| F.m.]./.@.",
"zXY.F.$XcXyX$XP.T.6XM.XX$XK.bXvX9XZ.Z.4X5XyXtXY.K.cXT.MXiXA.yXyXhXH.N.o.7.Y.P.5XC.2.6X9X8.H.4.m.K.P.Z.S.b.C.8XK.Z.Z.iXeXV J.4.,.",
"0 0 B.q.R L R B.W #.S ; W >.% i u s <.S q.e.U f.~ 4 7 P r.{ U 0.r.a.8.h `.@./ } C.l.i.Q X.N.v H ( ] ' n 0 F { 9 L.K.R./ 3.<.V ,.",
"r 0  .Y U U T  .F I K q S *.x i i s -.H U 0.U 5.{ Y ~ 2 , 1.L 5 d.@.| N N.O./ ` v.i.R U ] +.G f.d.] H x F I I q N M.&X..XX2.s G ",
"iXMXkXkXuXT.N.$XxXSXCXvXgXzXiXtX5X=XdXuX#X#XB.XX$XyXuXZ.'.@XXXuXT.B.yXmXMXDXnXbX6X| N b.5.XXuXOXP.9X0X7XP.Z.Z.T.$X*.2.A 2.5XZ.} ",
"T.-X*X^.j.4.d.g.f.L.3.2.4.| ~ [ | 5 w.e y.!...R L 4 0.V.Y 4 5 2 4.T q.q.P i.1.K 4 * @ 3.q.r.e.w.(.>.- h 3 2 V.1 5 w < <.4 L w P ",
"Y.f.Q...X.b.m._.m.1.3.9XH.4XyXtX5X/ / b.K m.8.K G ,.B.gXI.( m.L.P.} G K h o.3.( H G h >.H Y c >.1.V _ ^ 3 H M.D D U Y  .; 5 4 H ",
"ZXDXvXuXkXMXSXDXhX].*XlXmXSXlXNXmXJXSX$XXXI.iXhXiXgX8XF.P.5X5X5XP.vXZXxXbXkXuXuXMXcXSXZX6XxXyXkXlX=X`.T.5X9X8XP.F.1.B.%X@XB.8X$X",
"l j A.[.(.X.O.OXI r r t.s.K.[.(.lX.XL.' Y L E h ,.7.| s m G G ~ v Z.CXiX$XU 4 L J./ | J.J.H.1.S ..f.0.| G H.f d 3.@.X.e.R dXZ.W.",
"1.,.4XT.XXM.6.6XL.B.4.1.b.nX6XyXuX5X8X4XP.H.<.Z.,X=.:.C.F.P.2.F.4X7XZXzXyX#X$XT.gXP.b.xXiXSXVX@XI.yX$X2XZ.B B V C.V C N | L.C.+.",
"iXBX=XNX-X#XzXN.( X.'.mX5.XX%XoXXX9XL.N.J.oXbXuXmXMXMXCXkX(.].(.uXuX`.}.=X%XgX Xt.{.hXO...+.F { 5XuX%XT.H.zXL.hX%X$XiXXX].`._.M.",
"o.L.w 0 ..X.H.o.] w.t XX] f.L j XXD.~ j 4 T 1.] oX%XuXH.(.(.Q././.B.(.g..X.XJ.a.!.!.vXF I I I ..H.Y _ ~ d } +.$X....4.4 0.R L ' ",
"5XzXT.0XP.K.8X} I.L.$XgXT.8XyX4XvX7Xz.b.M.M.yXL.P.I.I.pXm.N.OXT.tX4XY.yXgXT.hX6XwXyXZ.b. .3.M.jXvXzX8X6XzXvX9X6XT.8XF.<.M.1.H.4X",
"o.,.d 6X@...] 0.N.`.=X).*XM.X.i.O.' 5.p.s.p.i.5.7.L O.E U 1.Y ^ ( 8.b.a.Q.Q.j./.,.O.`.Y 4 5Xm.5.( ^ $XO.X.f.@.8.Z.' { G G D.'.&X",
"( k ~ 4X| ( U U 1.@.%X5.5.1.@.k.o.' o.[.[.~.g._.K.^ ^ o.] b._.o.| M.K.f.Q.(.Q.+.| ].#X....P.m.N...# B X.O.U 1 D ) Y L H H *.' ( ",
"pXXXL.$X6X5XM.I.iXeX5XP.P.Z.eX8XzXT.iXB.iX'.L.$XxXzXyXpX8XiX5XY.5.%XyXM.F.M.N.@XjXAX8XjX#X&X&XgXK.m.@X| 4.C.( M.I.b.S.V V H.} >.",
").[.}..XL.6.G O.5.3.( % p f ,.xX^ 5.k.R T.e.p.i.L L.K _.o.o.' K.I ] i.i.J.(.f.W.#.'.T.0 f.g.a.XXo.r 0.w H  .7 L q.6 2.3 T X.I Z ",
"_.@XR.$XzXF.Z.H.I.xX8XF.2.V *.eXxXhXOXM.bX$X5.4.5.bXgXyXI.b.K.zXn.H.$XuXcXuXL.L.B.n.T...B.O.X.H.M.( ..m.H.F.a o.( v Z.c S { | 2."
};
